<svg width="115" height="115" viewBox="0 0 115 115" fill="none" xmlns="http://www.w3.org/2000/svg">
<path d="M67.0833 62.2917C63.0903 62.2917 59.6962 60.8941 56.901 58.0989C54.1059 55.3038 52.7083 51.9097 52.7083 47.9167C52.7083 43.9236 54.1059 40.5295 56.901 37.7344C59.6962 34.9392 63.0903 33.5417 67.0833 33.5417C71.0764 33.5417 74.4705 34.9392 77.2656 37.7344C80.0608 40.5295 81.4583 43.9236 81.4583 47.9167C81.4583 51.9097 80.0608 55.3038 77.2656 58.0989C74.4705 60.8941 71.0764 62.2917 67.0833 62.2917ZM33.5417 76.6667C30.9062 76.6667 28.6502 75.7283 26.7734 73.8516C24.8967 71.9748 23.9583 69.7187 23.9583 67.0833V28.75C23.9583 26.1146 24.8967 23.8585 26.7734 21.9818C28.6502 20.105 30.9062 19.1667 33.5417 19.1667H100.625C103.26 19.1667 105.516 20.105 107.393 21.9818C109.27 23.8585 110.208 26.1146 110.208 28.75V67.0833C110.208 69.7187 109.27 71.9748 107.393 73.8516C105.516 75.7283 103.26 76.6667 100.625 76.6667H33.5417ZM43.125 67.0833H91.0417C91.0417 64.4479 91.98 62.1918 93.8568 60.3151C95.7335 58.4384 97.9896 57.5 100.625 57.5V38.3333C97.9896 38.3333 95.7335 37.395 93.8568 35.5182C91.98 33.6415 91.0417 31.3854 91.0417 28.75H43.125C43.125 31.3854 42.1866 33.6415 40.3099 35.5182C38.4332 37.395 36.1771 38.3333 33.5417 38.3333V57.5C36.1771 57.5 38.4332 58.4384 40.3099 60.3151C42.1866 62.1918 43.125 64.4479 43.125 67.0833ZM95.8333 95.8333H14.375C11.7396 95.8333 9.4835 94.895 7.60677 93.0182C5.73003 91.1415 4.79166 88.8854 4.79166 86.25V33.5417H14.375V86.25H95.8333V95.8333Z" fill="#EA5A14"/>
</svg>
